<?xml version="1.0" standalone="no"?>
<!DOCTYPE svg PUBLIC "-//W3C//DTD SVG 20010904//EN"
 "http://www.w3.org/TR/2001/REC-SVG-20010904/DTD/svg10.dtd">
<svg version="1.0" xmlns="http://www.w3.org/2000/svg"
 width="1024.000000pt" height="1024.000000pt" viewBox="0 0 1024.000000 1024.000000"
 preserveAspectRatio="xMidYMid meet">
<metadata>
Created by potrace 1.11, written by Peter Selinger 2001-2013
</metadata>
<g transform="translate(0.000000,1024.000000) scale(0.100000,-0.100000)"
fill="#000000" stroke="none">
<path d="M5645 9136 c-42 -19 -82 -69 -95 -119 -6 -23 -20 -69 -30 -102 -14
-44 -157 -541 -206 -715 -2 -8 -3 -17 -3 -20 0 -3 -4 -17 -10 -32 -6 -15 -40
-130 -76 -255 -37 -126 -82 -282 -102 -348 -19 -66 -36 -127 -38 -135 -2 -8
-24 -85 -49 -170 -73 -247 -167 -574 -171 -590 -3 -13 -104 -362 -300 -1035
-35 -121 -95 -330 -134 -465 -87 -300 -120 -416 -132 -455 -18 -59 -158 -541
-172 -595 -14 -50 -47 -165 -262 -905 -95 -327 -136 -468 -140 -485 -6 -21
-159 -549 -206 -710 -22 -74 -42 -142 -44 -150 -2 -8 -21 -77 -43 -152 -54
-183 -48 -239 32 -287 17 -10 265 -87 550 -171 563 -165 563 -165 634 -117 48
32 73 93 157 387 42 146 101 348 130 450 30 102 128 444 220 760 91 316 211
730 266 920 209 720 353 1217 504 1740 18 63 68 234 110 380 43 146 81 279 85
295 4 17 33 118 65 225 31 107 86 296 122 420 87 303 144 500 188 650 20 69
38 132 40 140 2 8 52 179 110 380 59 201 108 372 110 380 2 8 31 109 65 224
63 220 68 262 35 312 -26 40 -59 55 -233 106 -238 69 -301 88 -352 104 -197
63 -504 147 -545 150 -29 3 -63 -2 -80 -10z"/>
<path d="M2495 7421 c-22 -11 -76 -54 -120 -96 -44 -42 -107 -102 -140 -132
-33 -31 -122 -114 -197 -186 -76 -71 -146 -137 -157 -146 -10 -9 -74 -69 -142
-133 -68 -64 -137 -128 -154 -144 -16 -15 -88 -82 -160 -149 -71 -68 -146
-137 -165 -155 -37 -34 -261 -243 -315 -295 -83 -78 -284 -266 -315 -295 -19
-18 -91 -85 -160 -150 -69 -64 -138 -129 -155 -144 -172 -155 -228 -229 -218
-290 10 -63 23 -78 213 -256 67 -63 139 -131 160 -150 87 -82 298 -280 330
-310 19 -18 91 -85 160 -150 69 -65 141 -132 160 -150 19 -18 91 -85 160 -150
69 -65 141 -132 160 -150 19 -18 91 -85 160 -150 69 -65 141 -132 160 -150 19
-18 91 -85 160 -150 69 -65 141 -132 160 -150 19 -18 91 -85 160 -150 69 -65
145 -136 170 -159 52 -48 112 -80 153 -81 15 0 45 9 65 19 31 16 163 147 311
310 13 14 56 60 95 101 39 42 123 131 186 199 63 68 121 130 129 138 83 86
109 147 88 205 -17 48 -36 69 -177 193 -69 61 -127 112 -130 115 -3 3 -39 34
-80 70 -41 36 -77 67 -80 70 -7 7 -158 141 -199 176 -19 16 -39 34 -45 39 -6
6 -85 75 -176 155 -91 79 -167 147 -170 150 -5 5 -130 115 -199 175 -20 17
-56 48 -81 71 -41 37 -63 56 -129 114 -15 12 -21 24 -15 29 5 4 86 74 179 156
94 81 188 164 210 184 22 20 72 63 110 96 39 33 75 65 80 71 6 5 44 39 85 75
41 35 77 66 80 69 3 3 77 68 165 145 88 77 162 142 165 145 3 3 39 34 80 70
41 36 80 70 86 75 6 6 41 37 79 70 143 126 160 147 170 203 4 22 -1 47 -14 75
-21 44 -25 49 -210 246 -64 68 -127 135 -140 150 -13 14 -79 84 -145 155 -301
322 -291 313 -358 321 -31 4 -54 0 -83 -14z"/>
<path d="M7640 7421 c-19 -10 -91 -79 -160 -152 -196 -209 -238 -253 -257
-276 -11 -12 -76 -81 -145 -155 -204 -215 -218 -232 -234 -262 -9 -15 -16 -48
-16 -73 0 -49 31 -96 101 -158 19 -16 39 -35 45 -40 6 -6 65 -58 131 -115 66
-58 122 -107 125 -110 3 -3 39 -34 80 -70 41 -36 80 -69 86 -75 87 -78 156
-138 184 -161 19 -16 40 -34 45 -40 6 -6 66 -60 135 -120 69 -60 141 -123 160
-140 75 -67 230 -203 330 -289 30 -26 59 -51 63 -55 9 -8 -19 -37 -109 -116
-33 -28 -156 -136 -274 -240 -118 -104 -273 -241 -345 -304 -71 -62 -135 -119
-141 -124 -6 -6 -24 -22 -40 -36 -131 -113 -451 -396 -500 -443 -110 -104
-105 -172 20 -302 28 -29 180 -192 336 -359 30 -32 71 -76 90 -96 19 -20 84
-90 144 -154 122 -131 160 -156 229 -152 53 3 83 23 206 141 46 44 92 87 101
95 24 22 143 133 240 224 47 44 114 107 150 141 36 33 106 99 155 145 50 47
148 139 218 205 71 66 148 138 172 160 23 22 95 90 160 150 65 61 139 130 165
155 59 56 283 266 319 299 14 13 93 87 176 165 82 78 188 177 235 221 47 44
93 89 103 100 71 77 65 169 -17 248 -36 35 -286 270 -327 308 -15 13 -84 78
-154 144 -70 66 -142 134 -160 150 -179 167 -312 292 -376 353 -42 40 -87 81
-99 92 -22 19 -225 209 -370 346 -41 40 -91 86 -110 104 -19 18 -89 83 -155
145 -66 62 -136 127 -155 145 -51 48 -266 249 -330 309 -92 87 -161 109 -230
72z"/>
</g>
</svg>
